<?xml version="1.0" standalone="no"?>
<!DOCTYPE svg PUBLIC "-//W3C//DTD SVG 20010904//EN"
 "http://www.w3.org/TR/2001/REC-SVG-20010904/DTD/svg10.dtd">
<svg version="1.0" xmlns="http://www.w3.org/2000/svg"
 width="225.000000pt" height="225.000000pt" viewBox="0 0 225.000000 225.000000"
 preserveAspectRatio="xMidYMid meet">

<g transform="translate(0.000000,225.000000) scale(0.100000,-0.100000)"
fill="#ff0000" stroke="none">
<path d="M954 2126 c-228 -44 -390 -129 -549 -290 -137 -138 -220 -285 -267
-473 -29 -115 -32 -360 -5 -467 24 -96 70 -207 125 -300 54 -91 205 -252 292
-310 l55 -36 3 140 3 140 44 0 c52 0 45 16 75 -180 27 -180 26 -177 54 -184
13 -3 31 -9 40 -12 14 -6 16 27 16 330 0 185 4 336 8 336 21 0 106 67 138 108
42 56 42 73 4 -273 -16 -148 -30 -273 -30 -277 0 -5 23 -8 50 -8 l50 0 0 -130
0 -130 65 0 65 0 0 130 0 129 53 3 53 3 -27 250 c-15 138 -30 273 -33 301 l-6
50 57 24 c30 13 71 36 89 53 l34 29 0 -467 0 -466 23 7 c66 21 59 -1 106 305
24 156 47 293 51 304 4 12 22 -76 46 -224 21 -133 42 -247 46 -253 9 -16 103
59 188 149 271 290 344 717 187 1089 -94 224 -290 424 -514 525 -165 75 -420
107 -589 75z m351 -125 c359 -74 638 -362 701 -723 46 -262 -35 -549 -209
-743 l-36 -40 -1 418 0 417 -173 0 -174 0 -23 -51 c-27 -56 -84 -113 -139
-137 -24 -11 -78 -18 -165 -22 l-129 -5 -15 -45 c-22 -65 -104 -144 -172 -164
-72 -21 -128 -20 -194 4 -66 25 -135 95 -161 163 l-18 47 -55 0 -55 0 7 -32
c17 -88 92 -194 174 -248 22 -15 23 -18 20 -180 l-3 -165 -53 65 c-66 82 -146
240 -174 345 -29 109 -31 328 -4 429 45 167 123 305 240 422 214 215 517 306
811 245z"/>
<path d="M1520 1690 c-68 -36 -94 -131 -54 -198 25 -43 94 -76 141 -69 139 23
168 206 43 269 -44 23 -86 22 -130 -2z"/>
<path d="M540 1565 c0 -51 3 -65 15 -65 12 0 15 14 15 65 0 51 -3 65 -15 65
-12 0 -15 -14 -15 -65z"/>
<path d="M605 1568 c30 -84 47 -85 74 -7 20 60 21 84 2 63 -5 -5 -14 -26 -21
-47 -14 -43 -22 -40 -40 16 -6 20 -17 37 -25 37 -9 0 -7 -16 10 -62z"/>
<path d="M730 1615 c-18 -22 -6 -42 35 -59 20 -9 34 -20 30 -26 -8 -13 -55
-13 -55 0 0 6 -7 10 -15 10 -13 0 -14 -4 -5 -20 7 -14 21 -20 44 -20 64 0 76
55 17 75 -19 6 -37 17 -39 23 -5 16 45 16 51 0 2 -7 8 -10 12 -6 4 4 5 14 2
23 -8 19 -61 20 -77 0z"/>
<path d="M851 1616 c-18 -22 2 -53 39 -61 31 -7 40 -29 16 -38 -7 -3 -24 1
-35 10 -26 18 -39 10 -21 -12 9 -11 26 -15 49 -13 31 3 36 7 39 31 3 23 -2 30
-32 42 -20 9 -36 20 -36 25 0 14 34 12 48 -2 17 -17 28 -2 12 17 -16 19 -64
20 -79 1z"/>
<path d="M1064 1481 c-105 -48 -105 -205 -1 -254 116 -56 235 49 198 174 -23
78 -119 117 -197 80z"/>
<path d="M636 1260 c-89 -28 -128 -150 -70 -220 53 -62 118 -76 184 -39 47 27
70 66 70 121 0 98 -92 167 -184 138z"/>
</g>
</svg>
